<svg id="Grupo_7" data-name="Grupo 7" xmlns="http://www.w3.org/2000/svg" width="821" height="665" viewBox="0 0 821 665">
  <metadata><?xpacket begin="﻿" id="W5M0MpCehiHzreSzNTczkc9d"?>
<x:xmpmeta xmlns:x="adobe:ns:meta/" x:xmptk="Adobe XMP Core 5.6-c142 79.160924, 2017/07/13-01:06:39        ">
   <rdf:RDF xmlns:rdf="http://www.w3.org/1999/02/22-rdf-syntax-ns#">
      <rdf:Description rdf:about=""/>
   </rdf:RDF>
</x:xmpmeta>
                                                                                                    
                                                                                                    
                                                                                                    
                                                                                                    
                                                                                                    
                                                                                                    
                                                                                                    
                                                                                                    
                                                                                                    
                                                                                                    
                                                                                                    
                                                                                                    
                                                                                                    
                                                                                                    
                                                                                                    
                                                                                                    
                                                                                                    
                                                                                                    
                                                                                                    
                                                                                                    
                           
<?xpacket end="w"?></metadata>
<defs>
    <style>
      .cls-1 {
        fill: #f85244;
      }

      .cls-1, .cls-3, .cls-5, .cls-6, .cls-7, .cls-8, .cls-9 {
        fill-rule: evenodd;
      }

      .cls-10, .cls-2 {
        font-size: 35px;
      }

      .cls-2, .cls-3, .cls-4 {
        fill: #fff;
      }

      .cls-10, .cls-2, .cls-4 {
        font-family: Arial;
      }

      .cls-4 {
        font-size: 12px;
      }

      .cls-5 {
        fill: #c40e1d;
      }

      .cls-6 {
        fill: #910931;
      }

      .cls-7 {
        fill: #1b4d70;
      }

      .cls-8 {
        fill: #3aaacf;
      }

      .cls-9 {
        fill: #6ac4c5;
      }

      .cls-10 {
        fill: #405675;
      }
    </style>
  </defs>
  <g id="Grupo_6" data-name="Grupo 6">
    <path id="Forma_6" data-name="Forma 6" class="cls-1" d="M793,403.723s-1.609,77.816-28.235,139.739C737.367,607.181,684.929,657,684.929,657L527.2,498.823s18.248-20,28.235-44.639c9.472-23.365,10.71-51.431,10.71-51.431Z"/>
    <text id="Mobile" class="cls-2" x="592" y="453">Mobile</text>
    <path id="Linea_6" data-name="Linea 6" class="cls-3" d="M595,469v-2H750v2H595Z"/>
    <text id="Cordoba_Swift_Ionic_Meteor" data-name="Cordoba, Swift, Ionic, Meteor" class="cls-4" x="594" y="493">Cordoba, Swift, Ionic, Meteor</text>
  </g>
  <g id="Grupo_5" data-name="Grupo 5">
    <path id="Forma_5" data-name="Forma 5" class="cls-5" d="M793,382.825s-1.609-77.816-28.235-139.739c-27.4-63.719-79.836-113.538-79.836-113.538L527.2,287.725s18.248,20,28.235,44.639c9.472,23.365,10.71,51.432,10.71,51.432Z"/>
    <text id="Cloud" class="cls-2" x="593" y="262">Cloud</text>
    <path id="Linea_5" data-name="Linea 5" class="cls-3" d="M595,278v-2H750v2H595Z"/>
    <text id="Amazon:_EC2_Lambda_SNS_SES_Route53_DynamoBD_IAM_API_Gate" data-name="Amazon: EC2, Lambda, SNS, SES, Route53, DynamoBD, IAM, API Gate" class="cls-4" x="595" y="312">Amazon: EC2, Lambda, SNS,<tspan x="595" dy="14.4">SES, Route53, DynamoBD,</tspan><tspan x="595" dy="14.4">IAM, API Gateway</tspan></text>
  </g>
  <g id="Grupo_4" data-name="Grupo 4">
    <path id="Forma_4" data-name="Forma 4" class="cls-6" d="M420.965,8S498.9,9.606,560.913,36.193C624.727,63.55,674.62,115.909,674.62,115.909L516.207,273.4s-20.032-18.221-44.706-28.193c-23.4-9.457-51.508-10.694-51.508-10.694Z"/>
    <text id="Front_End" data-name="Front End" class="cls-2" x="431" y="82">Front End</text>
    <path id="Linea_4" data-name="Linea 4" class="cls-3" d="M433,98V96H588v2H433Z"/>
    <text id="React_JS_Angular_JS_Bootstrap_Service_Workers_Progressive_W" data-name="React JS, Angular JS, Bootstrap, Service Workers, Progressive W" class="cls-4" x="433" y="130">React JS, Angular JS,<tspan x="433" dy="14.4">Bootstrap, Service Workers,</tspan><tspan x="433" dy="14.4">Progressive Web Apps,</tspan><tspan x="433" dy="14.4">KnockoutJS, Saas, Less</tspan></text>
  </g>
  <g id="Grupo_3" data-name="Grupo 3">
    <path id="Forma_3" data-name="Forma 3" class="cls-7" d="M401.152,8S323.22,9.606,261.2,36.193C197.39,63.55,147.5,115.909,147.5,115.909L305.91,273.4s20.032-18.221,44.7-28.193c23.4-9.457,51.509-10.694,51.509-10.694Z"/>
    <text id="BD" class="cls-2" x="274" y="82">BD</text>
    <path id="Linea_3" data-name="Linea 3" class="cls-3" d="M233,98V96H388v2H233Z"/>
    <text id="Relacionales:_Oracle_Sql_Server_MySql_PostgreSql" data-name="Relacionales: Oracle, Sql Server, MySql, PostgreSql" class="cls-4" x="241" y="117">Relacionales: Oracle, Sql<tspan x="241" dy="14.4">Server, MySql, PostgreSql</tspan></text>
    <text id="Documentales:_MongoDB_Cassandra" data-name="Documentales: MongoDB, Cassandra" class="cls-4" x="242" y="161">Documentales: MongoDB,<tspan x="242" dy="14.4">Cassandra</tspan></text>
    <text id="Grafos:_Neo4J" data-name="Grafos: Neo4J" class="cls-4" x="242" y="203">Grafos: Neo4J</text>
  </g>
  <g id="Grupo_2" data-name="Grupo 2">
    <path id="Forma_2" data-name="Forma 2" class="cls-8" d="M132.274,129.4S78.388,185.637,53.455,248.259C27.8,312.7,29.7,384.946,29.7,384.946l223.543-.813s1.222-27.029,11.571-51.517c9.815-23.223,28.785-43.971,28.785-43.971Z"/>
    <text id="WS" class="cls-2" x="83" y="262">WS</text>
    <path id="Linea_2" data-name="Linea 2" class="cls-3" d="M83,278v-2H238v2H83Z"/>
    <text id="SOAP_REST_Socket" data-name="SOAP, REST, Socket" class="cls-4" x="82" y="312">SOAP, REST, Socket</text>
  </g>
  <g id="Grupo_1" data-name="Grupo 1">
    <path id="Forma_1" data-name="Forma 1" class="cls-9" d="M28,403.723s1.608,77.816,28.235,139.739C83.633,607.181,136.071,657,136.071,657L293.8,498.823s-18.248-20-28.235-44.639c-9.472-23.365-10.71-51.431-10.71-51.431Z"/>
    <text id="Big_Data" data-name="Big Data" class="cls-2" x="80" y="449">Big Data</text>
    <path id="Linea_1" data-name="Linea 1" class="cls-3" d="M83,466v-2H238v2H83Z"/>
    <text id="Apache_Spark_Hadoop_Elastic_Search_Amazon_Athena" data-name="Apache Spark, Hadoop, Elastic Search, Amazon Athena" class="cls-4" x="83" y="486">Apache Spark, Hadoop,<tspan x="83" dy="14.4">Elastic Search, Amazon</tspan><tspan x="83" dy="14.4">Athena</tspan></text>
  </g>
  <text id="Tecnologías" class="cls-10" x="310" y="403">Tecnologías</text>
</svg>
